<mxfile host="app.diagrams.net" modified="2023-07-31T17:30:00.299Z" agent="Mozilla/5.0 (Windows NT 10.0; Win64; x64) AppleWebKit/537.36 (KHTML, like Gecko) Chrome/115.0.0.0 Safari/537.36 Edg/115.0.1901.188" etag="P-2axPiP-w_bB5BSX7OG" version="21.6.6" type="github">
  <diagram name="Страница 1" id="5m_mwtfcLWCNZrnzormu">
    <mxGraphModel dx="996" dy="631" grid="1" gridSize="10" guides="1" tooltips="1" connect="1" arrows="1" fold="1" page="1" pageScale="1" pageWidth="827" pageHeight="1169" math="0" shadow="0">
      <root>
        <mxCell id="0" />
        <mxCell id="1" parent="0" />
        <mxCell id="ShFPuFszqGiULFZDKFc_-1" value="FrameProducer" style="swimlane;fontStyle=1;align=left;verticalAlign=top;childLayout=stackLayout;horizontal=1;startSize=26;horizontalStack=0;resizeParent=1;resizeParentMax=0;resizeLast=0;collapsible=1;marginBottom=0;whiteSpace=wrap;html=1;fontSize=12;" vertex="1" parent="1">
          <mxGeometry x="70" y="110" width="270" height="118" as="geometry" />
        </mxCell>
        <mxCell id="ShFPuFszqGiULFZDKFc_-2" value="+ field: type" style="text;strokeColor=default;fillColor=default;align=left;verticalAlign=top;spacingLeft=4;spacingRight=4;overflow=hidden;rotatable=0;points=[[0,0.5],[1,0.5]];portConstraint=eastwest;whiteSpace=wrap;html=1;fontSize=12;" vertex="1" parent="ShFPuFszqGiULFZDKFc_-1">
          <mxGeometry y="26" width="270" height="24" as="geometry" />
        </mxCell>
        <mxCell id="ShFPuFszqGiULFZDKFc_-4" value="+ CountCheckSum(): type" style="text;strokeColor=default;fillColor=default;align=left;verticalAlign=top;spacingLeft=4;spacingRight=4;overflow=hidden;rotatable=0;points=[[0,0.5],[1,0.5]];portConstraint=eastwest;whiteSpace=wrap;html=1;fontSize=12;" vertex="1" parent="ShFPuFszqGiULFZDKFc_-1">
          <mxGeometry y="50" width="270" height="68" as="geometry" />
        </mxCell>
        <mxCell id="ShFPuFszqGiULFZDKFc_-5" value="PhysicalLevelService" style="html=1;whiteSpace=wrap;fontSize=16;" vertex="1" parent="1">
          <mxGeometry x="120" y="535" width="270" height="50" as="geometry" />
        </mxCell>
        <mxCell id="ShFPuFszqGiULFZDKFc_-6" value="" style="rounded=0;orthogonalLoop=1;jettySize=auto;html=1;endArrow=halfCircle;endFill=0;endSize=6;strokeWidth=1;sketch=0;fontSize=12;curved=1;exitX=0.5;exitY=0;exitDx=0;exitDy=0;" edge="1" parent="1" source="ShFPuFszqGiULFZDKFc_-5">
          <mxGeometry relative="1" as="geometry">
            <mxPoint x="425" y="325" as="sourcePoint" />
            <mxPoint x="255" y="500" as="targetPoint" />
          </mxGeometry>
        </mxCell>
        <mxCell id="ShFPuFszqGiULFZDKFc_-7" value="" style="ellipse;whiteSpace=wrap;html=1;align=center;aspect=fixed;fillColor=none;strokeColor=none;resizable=0;perimeter=centerPerimeter;rotatable=0;allowArrows=0;points=[];outlineConnect=1;fontSize=16;" vertex="1" parent="1">
          <mxGeometry x="400" y="320" width="10" height="10" as="geometry" />
        </mxCell>
        <mxCell id="ShFPuFszqGiULFZDKFc_-9" value="&lt;p style=&quot;margin:0px;margin-top:4px;text-align:center;&quot;&gt;&lt;b&gt;Frame&lt;/b&gt;&lt;/p&gt;&lt;hr size=&quot;1&quot;&gt;&lt;p style=&quot;margin:0px;margin-left:4px;&quot;&gt;+ CheckSum: Type&lt;/p&gt;&lt;hr size=&quot;1&quot;&gt;&lt;p style=&quot;margin:0px;margin-left:4px;&quot;&gt;+ method(): Type&lt;/p&gt;" style="verticalAlign=top;align=left;overflow=fill;fontSize=12;fontFamily=Helvetica;html=1;whiteSpace=wrap;" vertex="1" parent="1">
          <mxGeometry x="330" y="280" width="160" height="90" as="geometry" />
        </mxCell>
      </root>
    </mxGraphModel>
  </diagram>
</mxfile>
